<svg width="192" height="192" viewBox="0 0 192 192" fill="none" xmlns="http://www.w3.org/2000/svg">
    <rect x="1" y="1" width="190" height="190" rx="95" fill="#090717"/>
    <path d="M160 81.3333V140C143.842 140 130.743 126.867 130.743 110.667V52C146.901 52 160 65.133 160 81.3333Z" fill="white"/>
    <path d="M127.086 81.3333V140C110.927 140 97.8286 126.867 97.8286 110.667V52C113.987 52 127.086 65.133 127.086 81.3333Z" fill="white"/>
    <path d="M94.1714 81.3333V140C78.0132 140 64.9143 126.867 64.9143 110.667V52C81.0726 52 94.1714 65.133 94.1714 81.3333Z" fill="white"/>
    <path d="M61.2571 81.3333H32C32 65.133 45.0989 52 61.2571 52V81.3333Z" fill="white"/>
    <rect x="1" y="1" width="190" height="190" rx="95" stroke="#232131" stroke-width="2"/>
</svg>
